<svg xmlns="http://www.w3.org/2000/svg" width="854" height="480" viewBox="0 0 854 480"><rect width="100%" height="100%" fill="#DDDDDD"/><path fill="#999999" d="M181.485 214.82v41.21h-7.69v-41.21h7.69Zm15.14 41.21h-7.04v-29.24h4.3q1.37 0 1.8 1.28l.45 2.17q.77-.86 1.61-1.57.84-.71 1.8-1.23.95-.51 2.05-.81 1.1-.3 2.41-.3 2.76 0 4.54 1.5 1.79 1.5 2.67 3.97.68-1.45 1.71-2.49 1.02-1.04 2.25-1.69 1.23-.66 2.61-.97 1.38-.32 2.78-.32 2.42 0 4.3.74 1.88.75 3.16 2.17 1.29 1.42 1.96 3.48.67 2.05.67 4.7v18.61h-7.04v-18.61q0-2.79-1.23-4.2-1.22-1.42-3.59-1.42-1.08 0-2.01.38-.93.37-1.62 1.06-.7.7-1.1 1.76-.4 1.05-.4 2.42v18.61h-7.07v-18.61q0-2.94-1.18-4.28-1.18-1.34-3.46-1.34-1.54 0-2.87.76-1.32.76-2.46 2.07v21.4Zm56.14-7.55v-4.93q-3.05.14-5.13.52-2.08.39-3.33.99-1.26.6-1.8 1.39-.54.8-.54 1.74 0 1.85 1.1 2.65 1.09.8 2.86.8 2.17 0 3.75-.78 1.58-.79 3.09-2.38Zm-14.88-15.36-1.25-2.26q5.05-4.61 12.14-4.61 2.57 0 4.59.84t3.42 2.34q1.4 1.49 2.12 3.57.73 2.08.73 4.56v18.47h-3.19q-1 0-1.54-.3t-.86-1.21l-.62-2.11q-1.11 1-2.17 1.75-1.05.76-2.19 1.27t-2.44.79q-1.3.27-2.86.27-1.86 0-3.42-.5-1.57-.5-2.71-1.5t-1.77-2.48q-.63-1.48-.63-3.45 0-1.11.37-2.21.38-1.09 1.22-2.09.84-1 2.18-1.88 1.34-.89 3.29-1.54 1.95-.66 4.54-1.07 2.6-.41 5.93-.5v-1.71q0-2.93-1.25-4.34-1.26-1.42-3.62-1.42-1.71 0-2.84.4-1.12.4-1.98.9-.85.5-1.55.9-.7.4-1.55.4-.75 0-1.26-.39-.51-.38-.83-.89Zm39.05 7.58q1.31 0 2.28-.36.97-.36 1.61-.98.64-.63.97-1.51.33-.89.33-1.94 0-2.17-1.3-3.44-1.3-1.26-3.89-1.26t-3.89 1.26q-1.3 1.27-1.3 3.44 0 1.02.33 1.91.33.88.97 1.52.64.64 1.62 1 .99.36 2.27.36Zm7.95 16.64q0-.85-.51-1.4-.51-.54-1.4-.84-.88-.3-2.06-.44-1.19-.14-2.51-.21-1.33-.07-2.74-.13-1.41-.06-2.75-.23-1.17.66-1.89 1.54-.73.88-.73 2.05 0 .77.38 1.44.39.67 1.23 1.16.84.48 2.18.75 1.34.27 3.28.27 1.96 0 3.39-.3 1.42-.3 2.35-.82.93-.53 1.35-1.26.43-.72.43-1.58Zm-1.4-29.55h8.41v2.62q0 1.25-1.51 1.54l-2.62.48q.6 1.51.6 3.31 0 2.16-.87 3.92-.87 1.75-2.41 2.97-1.54 1.23-3.63 1.9-2.1.67-4.52.67-.86 0-1.65-.09-.8-.08-1.57-.22-1.37.82-1.37 1.85 0 .88.81 1.3.82.41 2.16.58 1.33.17 3.04.21 1.71.05 3.51.19 1.8.14 3.51.5 1.71.35 3.05 1.12 1.33.77 2.15 2.1.81 1.32.81 3.4 0 1.94-.96 3.77-.95 1.82-2.76 3.25-1.81 1.42-4.45 2.29-2.63.87-6 .87-3.3 0-5.75-.64t-4.08-1.71q-1.62-1.07-2.42-2.47-.8-1.39-.8-2.91 0-2.05 1.24-3.43 1.24-1.38 3.41-2.21-1.17-.6-1.86-1.59-.68-1-.68-2.63 0-.65.24-1.35.25-.7.72-1.38.47-.69 1.18-1.3.71-.61 1.68-1.1-2.22-1.19-3.49-3.19-1.27-1.99-1.27-4.67 0-2.17.87-3.92t2.42-2.99q1.56-1.24 3.68-1.9 2.12-.65 4.63-.65 1.88 0 3.53.38 1.66.39 3.02 1.13Zm18.42 10.26h13.28q0-1.37-.39-2.58-.38-1.21-1.15-2.13-.77-.91-1.95-1.44-1.19-.52-2.75-.52-3.05 0-4.81 1.74-1.75 1.73-2.23 4.93Zm17.95 4.24h-18.1q.17 2.25.8 3.89.63 1.64 1.65 2.71 1.03 1.07 2.44 1.6 1.41.52 3.12.52 1.71 0 2.95-.4 1.24-.39 2.17-.88.92-.48 1.62-.88.7-.4 1.36-.4.88 0 1.31.65l2.02 2.57q-1.17 1.37-2.62 2.29-1.46.93-3.04 1.49-1.58.55-3.22.78-1.64.23-3.18.23-3.04 0-5.67-1.01-2.62-1.02-4.56-3-1.93-1.98-3.05-4.9-1.11-2.92-1.11-6.77 0-2.99.97-5.63.97-2.63 2.78-4.58 1.81-1.96 4.42-3.1 2.61-1.14 5.88-1.14 2.77 0 5.1.89 2.34.88 4.02 2.58 1.68 1.69 2.64 4.16.95 2.46.95 5.63 0 1.59-.34 2.15-.34.55-1.31.55Zm49.88-27.47h6.75v41.21h-3.93q-.91 0-1.53-.3-.61-.3-1.18-1.01l-21.52-27.48q.17 1.89.17 3.48v25.31h-6.75v-41.21h4.02q.48 0 .84.04.35.04.62.17.28.13.53.37.26.25.57.64l21.61 27.59q-.09-1-.15-1.96-.05-.97-.05-1.8v-25.05Zm27.75 11.51q3.25 0 5.92 1.06 2.66 1.05 4.56 2.99 1.89 1.94 2.92 4.73 1.03 2.79 1.03 6.24 0 3.48-1.03 6.27-1.03 2.8-2.92 4.76-1.9 1.97-4.56 3.02-2.67 1.06-5.92 1.06-3.27 0-5.95-1.06-2.68-1.05-4.58-3.02-1.89-1.96-2.93-4.76-1.04-2.79-1.04-6.27 0-3.45 1.04-6.24t2.93-4.73q1.9-1.94 4.58-2.99 2.68-1.06 5.95-1.06Zm0 24.71q3.65 0 5.41-2.45 1.75-2.45 1.75-7.18 0-4.73-1.75-7.21-1.76-2.48-5.41-2.48-3.7 0-5.48 2.49-1.78 2.5-1.78 7.2t1.78 7.17q1.78 2.46 5.48 2.46Zm29.56 5.45q-3.82 0-5.86-2.16-2.04-2.15-2.04-5.94v-16.33h-2.99q-.57 0-.97-.37t-.4-1.11v-2.79l4.71-.77 1.48-7.98q.14-.57.54-.89.4-.31 1.03-.31h3.64v9.21h7.81v5.01h-7.81v15.85q0 1.37.67 2.13.67.77 1.84.77.66 0 1.1-.15.44-.16.77-.33t.58-.33q.26-.15.52-.15.31 0 .51.15.2.16.43.47l2.11 3.42q-1.54 1.29-3.54 1.94-1.99.66-4.13.66Zm35.08-16.02h13.11l-5.01-13.71q-.37-.91-.77-2.17-.4-1.25-.8-2.7-.37 1.45-.77 2.72-.4 1.27-.77 2.21l-4.99 13.65Zm10.46-25.65 16.19 41.21h-5.93q-1 0-1.62-.5-.63-.5-.94-1.24l-3.08-8.41h-17.07l-3.08 8.41q-.23.66-.88 1.2-.66.54-1.63.54h-5.98l16.21-41.21h7.81Zm40.16 11.97h5.56l-11.6 29.24h-6.39l-11.6-29.24h5.82q.8 0 1.32.37.53.37.7.94l5.64 15.62q.46 1.37.8 2.68t.6 2.62q.29-1.31.63-2.62t.82-2.68l5.76-15.62q.2-.57.71-.94.52-.37 1.23-.37Zm24.74 21.69v-4.93q-3.05.14-5.13.52-2.08.39-3.34.99-1.25.6-1.79 1.39-.54.8-.54 1.74 0 1.85 1.09 2.65 1.1.8 2.87.8 2.16 0 3.74-.78 1.59-.79 3.1-2.38Zm-14.88-15.36-1.25-2.26q5.04-4.61 12.14-4.61 2.56 0 4.59.84 2.02.84 3.42 2.34 1.39 1.49 2.12 3.57.73 2.08.73 4.56v18.47h-3.2q-.99 0-1.54-.3-.54-.3-.85-1.21l-.63-2.11q-1.11 1-2.16 1.75-1.06.76-2.2 1.27-1.14.51-2.44.79-1.29.27-2.86.27-1.85 0-3.42-.5-1.57-.5-2.71-1.5t-1.76-2.48q-.63-1.48-.63-3.45 0-1.11.37-2.21.37-1.09 1.21-2.09.84-1 2.18-1.88 1.34-.89 3.29-1.54 1.96-.66 4.55-1.07 2.59-.41 5.93-.5v-1.71q0-2.93-1.26-4.34-1.25-1.42-3.62-1.42-1.71 0-2.83.4-1.13.4-1.98.9-.86.5-1.56.9-.69.4-1.55.4-.74 0-1.25-.39-.52-.38-.83-.89Zm28.59-6.33h7.06v29.24h-7.06v-29.24Zm8.03-8.52q0 .91-.37 1.71-.37.8-.98 1.39-.61.6-1.44.96t-1.77.36q-.91 0-1.72-.36-.81-.36-1.41-.96-.6-.59-.96-1.39-.35-.8-.35-1.71 0-.94.35-1.77.36-.83.96-1.42.6-.6 1.41-.96.81-.36 1.72-.36.94 0 1.77.36.83.36 1.44.96.61.59.98 1.42t.37 1.77Zm6.3-4.59h7.04v42.35h-7.04v-42.35Zm29.53 34.8v-4.93q-3.05.14-5.13.52-2.08.39-3.34.99-1.25.6-1.79 1.39-.54.8-.54 1.74 0 1.85 1.09 2.65 1.1.8 2.87.8 2.16 0 3.74-.78 1.59-.79 3.1-2.38Zm-14.88-15.36-1.25-2.26q5.04-4.61 12.14-4.61 2.56 0 4.59.84 2.02.84 3.42 2.34 1.39 1.49 2.12 3.57.73 2.08.73 4.56v18.47h-3.2q-.99 0-1.54-.3-.54-.3-.85-1.21l-.63-2.11q-1.11 1-2.16 1.75-1.06.76-2.2 1.27-1.14.51-2.43.79-1.3.27-2.87.27-1.85 0-3.42-.5-1.57-.5-2.71-1.5t-1.76-2.48q-.63-1.48-.63-3.45 0-1.11.37-2.21.37-1.09 1.21-2.09.84-1 2.18-1.88 1.34-.89 3.29-1.54 1.96-.66 4.55-1.07 2.59-.41 5.93-.5v-1.71q0-2.93-1.26-4.34-1.25-1.42-3.62-1.42-1.71 0-2.83.4-1.13.4-1.98.9-.86.5-1.56.9-.69.4-1.55.4-.74 0-1.25-.39-.52-.38-.83-.89Zm35.4 2.22v13.11q1.19 1.45 2.6 2.05 1.42.6 2.98.6 1.63 0 2.92-.58 1.3-.59 2.21-1.83.91-1.24 1.4-3.16.48-1.93.48-4.61 0-4.81-1.59-6.96-1.6-2.16-4.59-2.16-2.02 0-3.53.93-1.52.93-2.88 2.61Zm0-21.66v16.7q1.76-1.85 3.92-2.95 2.15-1.1 4.91-1.1 2.54 0 4.58 1 2.03 1 3.47 2.86 1.44 1.87 2.21 4.52.77 2.65.77 5.96 0 3.56-.88 6.47-.89 2.9-2.52 4.97-1.64 2.07-3.95 3.21-2.31 1.14-5.13 1.14-1.37 0-2.48-.27-1.11-.27-2.05-.76-.94-.48-1.73-1.18-.78-.7-1.49-1.55l-.32 1.96q-.17.74-.58 1.06-.41.31-1.13.31h-4.64v-42.35h7.04Zm25.39 0h7.04v42.35h-7.04v-42.35Zm19.64 24.37h13.28q0-1.37-.39-2.58-.38-1.21-1.15-2.13-.77-.91-1.95-1.44-1.19-.52-2.75-.52-3.05 0-4.81 1.74-1.75 1.73-2.23 4.93Zm17.95 4.24h-18.1q.18 2.25.8 3.89.63 1.64 1.66 2.71 1.02 1.07 2.43 1.6 1.41.52 3.12.52 1.71 0 2.95-.4 1.24-.39 2.17-.88.92-.48 1.62-.88.7-.4 1.36-.4.88 0 1.31.65l2.02 2.57q-1.17 1.37-2.62 2.29-1.45.93-3.04 1.49-1.58.55-3.22.78-1.64.23-3.17.23-3.05 0-5.68-1.01-2.62-1.02-4.56-3-1.93-1.98-3.05-4.9-1.11-2.92-1.11-6.77 0-2.99.97-5.63.97-2.63 2.78-4.58 1.81-1.96 4.42-3.1 2.61-1.14 5.88-1.14 2.77 0 5.11.89 2.33.88 4.01 2.58 1.69 1.69 2.64 4.16.95 2.46.95 5.63 0 1.59-.34 2.15-.34.55-1.31.55Z"/></svg>